# xmcd
#
# Track frame offsets: 
#        150
#        12732
#        31614
#        44013
#        62538
#        74286
#        85102
#        98326
#        118392
#        123440
#        131501
#        144753
#        148609
#        169144
#
# Disc length: 2421 seconds
#
# Revision: 4
# Processed by: cddbd v1.5.2PL0 Copyright (c) Steve Scherf et al.
# Submitted via: ExactAudioCopy v0.99pb1
#
DISCID=be09730e
DTITLE=Billy's Band - Парижские сезоны
DYEAR=2002
DGENRE=Blues
TTITLE0=Уличный вальс
TTITLE1=Коктейль
TTITLE2=Damned
TTITLE3=Ночь в 'Пурге'
TTITLE4=Парижские сезоны (оригинальная версия)
TTITLE5=Дура
TTITLE6=Эдвард
TTITLE7=200 кубиков 'Агдама'
TTITLE8=Военное танго
TTITLE9=Печальный фильм
TTITLE10=Desperados
TTITLE11=Парижские сезоны (железнодорожная версия)
TTITLE12=Выпей вина
TTITLE13=Райончик
EXTD=YEAR: 2002
EXTT0=
EXTT1=
EXTT2=
EXTT3=
EXTT4=
EXTT5=
EXTT6=
EXTT7=
EXTT8=
EXTT9=
EXTT10=
EXTT11=
EXTT12=
EXTT13=
PLAYORDER=
